# xmcd
#
# Track frame offsets: 
#        150
#        13875
#        31410
#        36683
#        49945
#        69720
#        88853
#        111468
#        127700
#        138420
#        157133
#        171228
#        187660
#        194265
#        253623
#
# Disc length: 4079 seconds
#
# Revision: 6
# Processed by: cddbd v1.5.1PL0 Copyright (c) Steve Scherf et al.
# Submitted via: ExactAudioCopy v0.95a5
#
DISCID=db0fed0f
DTITLE=G. Love and Special Sauce - Philadelphonic
DYEAR=1999
DGENRE=Funk
TTITLE0=No Turning Back
TTITLE1=Dreamin'
TTITLE2=Roaches
TTITLE3=Rodeo Clowns
TTITLE4=Numbers
TTITLE5=Relax
TTITLE6=Do It For Free
TTITLE7=Honor And Harmony
TTITLE8=Kick Drum
TTITLE9=Friday Night (Hundred Dollar Bill)
TTITLE10=Rock and Roll (Shouts Out Back To The Rappers)
TTITLE11=Love
TTITLE12=Around The World (Thank You)
TTITLE13=Gimme Some Lovin'
TTITLE14=Data Track
EXTD=YEAR: 1999
EXTT0=
EXTT1=
EXTT2=
EXTT3=
EXTT4=
EXTT5=
EXTT6=
EXTT7=
EXTT8=
EXTT9=
EXTT10=
EXTT11=
EXTT12=
EXTT13=
EXTT14=
PLAYORDER=
